<svg xmlns="http://www.w3.org/2000/svg" version="1.1" xmlns:xlink="http://www.w3.org/1999/xlink" xmlns:svgjs="http://svgjs.dev/svgjs" width="2000" height="1500" viewBox="0 0 2000 1500"><rect width="2000" height="1500" fill="#ffffff"></rect><g transform="matrix(0.75,0,0,0.75,249.09110381625896,517.3558886769811)"><svg viewBox="0 0 396 123" data-background-color="#ffffff" preserveAspectRatio="xMidYMid meet" height="621" width="2000" xmlns="http://www.w3.org/2000/svg" xmlns:xlink="http://www.w3.org/1999/xlink"><g id="tight-bounds" transform="matrix(1,0,0,1,0.24005140749238763,-0.06008808129658405)"><svg viewBox="0 0 395.52 123.12076437211245" height="123.12076437211245" width="395.52"><g><svg viewBox="0 0 705.2701344296635 219.54236963946872" height="123.12076437211245" width="395.52"><g><rect width="14.326018423887668" height="159.65273624288423" x="257.9214499746563" y="29.944816698292243" fill="#000000" opacity="1" stroke-width="0" stroke="transparent" fill-opacity="1" class="rect-qz-0" data-fill-palette-color="primary" rx="1%" id="qz-0" data-palette-color="#000000"></rect></g><g transform="matrix(1,0,0,1,309.7501344296635,30.341962808349166)"><svg viewBox="0 0 395.52 158.85844402277039" height="158.85844402277039" width="395.52"><g id="textblocktransform"><svg viewBox="0 0 395.52 158.85844402277039" height="158.85844402277039" width="395.52" id="textblock"><g><svg viewBox="0 0 395.52 158.85844402277039" height="158.85844402277039" width="395.52"><g transform="matrix(1,0,0,1,0,0)"><svg width="395.52" viewBox="3.49 -36.01 115.79 46.51" height="158.85844402277039" data-palette-color="#000000"><path d="M3.49-4.81L19.7-4.81 19.7-10.84 8.3-10.84Q7.3-10.84 6.42-11.22 5.54-11.6 4.9-12.24 4.25-12.89 3.87-13.77 3.49-14.65 3.49-15.65L3.49-15.65 3.49-21.19Q3.49-22.19 3.87-23.07 4.25-23.95 4.9-24.6 5.54-25.24 6.42-25.62 7.3-26 8.3-26L8.3-26 23.51-26 23.51-21.19 8.3-21.19 8.3-15.65 19.7-15.65Q20.7-15.65 21.57-15.27 22.44-14.89 23.1-14.25 23.75-13.6 24.13-12.72 24.51-11.84 24.51-10.84L24.51-10.84 24.51-4.81Q24.51-3.81 24.13-2.93 23.75-2.05 23.1-1.4 22.44-0.76 21.57-0.38 20.7 0 19.7 0L19.7 0 3.49 0 3.49-4.81ZM30.49-21.19L30.49-26 36.84-26 36.84-34.01 41.65-34.01 41.65-26 50.19-26 50.19-21.19 41.65-21.19 41.65-4.81 50.19-4.81 50.19 0 41.65 0Q40.67 0 39.79-0.38 38.91-0.76 38.25-1.4 37.6-2.05 37.22-2.93 36.84-3.81 36.84-4.81L36.84-4.81 36.84-21.19 30.49-21.19ZM64.74 10.5L59.96 10.5 65.4-2.34 55.2-26 60.25-26 67.84-8.11 75.43-26 80.49-26 64.74 10.5ZM85.49-36.01L90.28-36.01 90.28 0 85.49 0 85.49-36.01ZM97.77-21.19L97.77-26 119.28-26 119.28-24.71 105.43-4.81 119.28-4.81 119.28 0 97.28 0 97.28-1.29 111.12-21.19 97.77-21.19Z" opacity="1" transform="matrix(1,0,0,1,0,0)" fill="#000000" class="wordmark-text-0" data-fill-palette-color="primary" id="text-0"></path></svg></g></svg></g></svg></g></svg></g><g><svg viewBox="0 0 220.41878394353677 219.54236963946872" height="219.54236963946872" width="220.41878394353677"><g><svg xmlns="http://www.w3.org/2000/svg" xmlns:xlink="http://www.w3.org/1999/xlink" version="1.1" x="0" y="0" viewBox="2.4999255719183298 2.5995373637980035 50.00014885616333 49.80134163620199" style="enable-background:new 0 0 55 55;" xml:space="preserve" height="219.54236963946872" width="220.41878394353677" class="icon-icon-0" data-fill-palette-color="accent" id="icon-0"><g fill="#000000" data-fill-palette-color="accent"><path d="M48.512 12.912c-0.065-0.307-0.271-0.565-0.555-0.698L35.808 6.533v-2.934c0-0.29-0.126-0.566-0.346-0.756-0.219-0.19-0.51-0.273-0.798-0.234L27.5 3.647 20.336 2.609c-0.288-0.04-0.579 0.043-0.798 0.234-0.22 0.19-0.346 0.466-0.346 0.756v2.934L7.043 12.214c-0.284 0.133-0.489 0.391-0.555 0.698L2.521 31.59C2.5 31.694 2.494 31.802 2.506 31.908L4.688 51.512c0.057 0.506 0.484 0.889 0.994 0.889H13.219c0.278 0 0.544-0.116 0.733-0.32 0.188-0.204 0.284-0.478 0.264-0.755L12.84 32.938l0.615-2.737 1.345 21.263c0.033 0.527 0.471 0.937 0.998 0.937h23.404c0.527 0 0.965-0.41 0.998-0.937l1.345-21.263L42.16 32.938l-1.376 18.388c-0.021 0.277 0.075 0.551 0.264 0.755 0.189 0.204 0.455 0.32 0.733 0.32h7.537c0.51 0 0.938-0.383 0.995-0.889l2.181-19.604c0.012-0.106 0.006-0.214-0.015-0.318L48.512 12.912zM33.808 6.364L28.5 7.516V5.523l5.308-0.769V6.364zM26.5 5.523v1.993l-5.308-1.152V4.754L26.5 5.523zM12.141 50.401H6.576L4.512 31.847l3.83-18.033 11.969-5.596L26.5 9.563v36.132H16.439l-1.428-22.591c-0.001-0.02-0.013-0.036-0.015-0.056-0.009-0.073-0.032-0.138-0.056-0.206-0.02-0.055-0.034-0.111-0.063-0.161-0.034-0.061-0.08-0.11-0.125-0.162-0.039-0.045-0.074-0.091-0.121-0.128-0.048-0.039-0.104-0.064-0.159-0.093-0.062-0.034-0.122-0.066-0.191-0.085-0.018-0.005-0.03-0.018-0.049-0.022-0.047-0.011-0.092 0.001-0.138-0.003-0.049-0.004-0.095-0.023-0.145-0.02-0.02 0.001-0.035 0.012-0.055 0.015-0.07 0.008-0.133 0.031-0.199 0.054-0.059 0.02-0.117 0.036-0.17 0.066-0.055 0.031-0.1 0.073-0.149 0.114-0.05 0.042-0.099 0.081-0.139 0.132-0.038 0.047-0.062 0.101-0.091 0.155-0.033 0.062-0.066 0.122-0.086 0.191-0.005 0.019-0.019 0.033-0.023 0.052l-2.182 9.697c-0.021 0.097-0.029 0.196-0.021 0.294L12.141 50.401zM16.565 47.695H26.5v2.706h-9.764L16.565 47.695zM28.5 50.401v-2.706h9.935l-0.171 2.706H28.5zM48.424 50.401H42.859l1.307-17.463c0.008-0.099 0-0.198-0.021-0.294l-2.182-9.697c-0.004-0.019-0.018-0.033-0.023-0.052-0.019-0.068-0.051-0.127-0.084-0.188-0.029-0.055-0.055-0.111-0.093-0.159s-0.086-0.085-0.132-0.125c-0.051-0.044-0.099-0.088-0.158-0.122-0.05-0.028-0.106-0.043-0.161-0.062-0.068-0.024-0.134-0.047-0.207-0.056-0.019-0.002-0.035-0.013-0.054-0.015-0.05-0.003-0.095 0.015-0.144 0.02-0.047 0.004-0.092-0.007-0.139 0.003-0.018 0.004-0.031 0.017-0.049 0.022-0.072 0.02-0.134 0.054-0.199 0.089-0.051 0.028-0.103 0.051-0.149 0.087-0.052 0.041-0.091 0.092-0.134 0.142-0.041 0.048-0.082 0.092-0.113 0.147-0.03 0.054-0.047 0.112-0.067 0.171-0.023 0.066-0.045 0.129-0.053 0.199-0.002 0.02-0.014 0.036-0.015 0.056l-1.428 22.591H28.5V9.562l6.189-1.344 11.969 5.596 3.83 18.033L48.424 50.401z" fill="#000000" data-fill-palette-color="accent"></path></g></svg></g></svg></g></svg></g><defs></defs></svg><rect width="395.52" height="123.12076437211245" fill="none" stroke="none" visibility="hidden"></rect></g></svg></g></svg>